<svg xmlns="http://www.w3.org/2000/svg" viewBox="0 0 400 300" role="img" aria-labelledby="t"><title id="t">Intel Core i5-14600K</title><g fill="none" stroke-linecap="round" stroke-linejoin="round" stroke-width="3"><rect x="86" y="26" width="228" height="228" rx="14" fill="#10131a" stroke="#9aa5bb"/><path d="M86 52 L112 26" stroke="#19e3c0"/><circle cx="96.0" cy="36.0" r="2" fill="#19e3c0" stroke="none" opacity=".55"/><circle cx="113.2" cy="36.0" r="2" fill="#19e3c0" stroke="none" opacity=".55"/><circle cx="130.4" cy="36.0" r="2" fill="#19e3c0" stroke="none" opacity=".55"/><circle cx="147.6" cy="36.0" r="2" fill="#19e3c0" stroke="none" opacity=".55"/><circle cx="164.8" cy="36.0" r="2" fill="#19e3c0" stroke="none" opacity=".55"/><circle cx="182.0" cy="36.0" r="2" fill="#19e3c0" stroke="none" opacity=".55"/><circle cx="199.2" cy="36.0" r="2" fill="#19e3c0" stroke="none" opacity=".55"/><circle cx="216.4" cy="36.0" r="2" fill="#19e3c0" stroke="none" opacity=".55"/><circle cx="233.6" cy="36.0" r="2" fill="#19e3c0" stroke="none" opacity=".55"/><circle cx="250.8" cy="36.0" r="2" fill="#19e3c0" stroke="none" opacity=".55"/><circle cx="268.0" cy="36.0" r="2" fill="#19e3c0" stroke="none" opacity=".55"/><circle cx="285.2" cy="36.0" r="2" fill="#19e3c0" stroke="none" opacity=".55"/><circle cx="96.0" cy="53.2" r="2" fill="#19e3c0" stroke="none" opacity=".55"/><circle cx="113.2" cy="53.2" r="2" fill="#19e3c0" stroke="none" opacity=".55"/><circle cx="130.4" cy="53.2" r="2" fill="#19e3c0" stroke="none" opacity=".55"/><circle cx="147.6" cy="53.2" r="2" fill="#19e3c0" stroke="none" opacity=".55"/><circle cx="164.8" cy="53.2" r="2" fill="#19e3c0" stroke="none" opacity=".55"/><circle cx="182.0" cy="53.2" r="2" fill="#19e3c0" stroke="none" opacity=".55"/><circle cx="199.2" cy="53.2" r="2" fill="#19e3c0" stroke="none" opacity=".55"/><circle cx="216.4" cy="53.2" r="2" fill="#19e3c0" stroke="none" opacity=".55"/><circle cx="233.6" cy="53.2" r="2" fill="#19e3c0" stroke="none" opacity=".55"/><circle cx="250.8" cy="53.2" r="2" fill="#19e3c0" stroke="none" opacity=".55"/><circle cx="268.0" cy="53.2" r="2" fill="#19e3c0" stroke="none" opacity=".55"/><circle cx="285.2" cy="53.2" r="2" fill="#19e3c0" stroke="none" opacity=".55"/><circle cx="96.0" cy="70.4" r="2" fill="#19e3c0" stroke="none" opacity=".55"/><circle cx="113.2" cy="70.4" r="2" fill="#19e3c0" stroke="none" opacity=".55"/><circle cx="285.2" cy="70.4" r="2" fill="#19e3c0" stroke="none" opacity=".55"/><circle cx="96.0" cy="87.6" r="2" fill="#19e3c0" stroke="none" opacity=".55"/><circle cx="113.2" cy="87.6" r="2" fill="#19e3c0" stroke="none" opacity=".55"/><circle cx="285.2" cy="87.6" r="2" fill="#19e3c0" stroke="none" opacity=".55"/><circle cx="96.0" cy="104.8" r="2" fill="#19e3c0" stroke="none" opacity=".55"/><circle cx="113.2" cy="104.8" r="2" fill="#19e3c0" stroke="none" opacity=".55"/><circle cx="285.2" cy="104.8" r="2" fill="#19e3c0" stroke="none" opacity=".55"/><circle cx="96.0" cy="122.0" r="2" fill="#19e3c0" stroke="none" opacity=".55"/><circle cx="113.2" cy="122.0" r="2" fill="#19e3c0" stroke="none" opacity=".55"/><circle cx="285.2" cy="122.0" r="2" fill="#19e3c0" stroke="none" opacity=".55"/><circle cx="96.0" cy="139.2" r="2" fill="#19e3c0" stroke="none" opacity=".55"/><circle cx="113.2" cy="139.2" r="2" fill="#19e3c0" stroke="none" opacity=".55"/><circle cx="285.2" cy="139.2" r="2" fill="#19e3c0" stroke="none" opacity=".55"/><circle cx="96.0" cy="156.4" r="2" fill="#19e3c0" stroke="none" opacity=".55"/><circle cx="113.2" cy="156.4" r="2" fill="#19e3c0" stroke="none" opacity=".55"/><circle cx="285.2" cy="156.4" r="2" fill="#19e3c0" stroke="none" opacity=".55"/><circle cx="96.0" cy="173.6" r="2" fill="#19e3c0" stroke="none" opacity=".55"/><circle cx="113.2" cy="173.6" r="2" fill="#19e3c0" stroke="none" opacity=".55"/><circle cx="285.2" cy="173.6" r="2" fill="#19e3c0" stroke="none" opacity=".55"/><circle cx="96.0" cy="190.8" r="2" fill="#19e3c0" stroke="none" opacity=".55"/><circle cx="113.2" cy="190.8" r="2" fill="#19e3c0" stroke="none" opacity=".55"/><circle cx="285.2" cy="190.8" r="2" fill="#19e3c0" stroke="none" opacity=".55"/><circle cx="96.0" cy="208.0" r="2" fill="#19e3c0" stroke="none" opacity=".55"/><circle cx="113.2" cy="208.0" r="2" fill="#19e3c0" stroke="none" opacity=".55"/><circle cx="285.2" cy="208.0" r="2" fill="#19e3c0" stroke="none" opacity=".55"/><circle cx="96.0" cy="225.2" r="2" fill="#19e3c0" stroke="none" opacity=".55"/><circle cx="113.2" cy="225.2" r="2" fill="#19e3c0" stroke="none" opacity=".55"/><circle cx="285.2" cy="225.2" r="2" fill="#19e3c0" stroke="none" opacity=".55"/><rect x="120" y="60" width="160" height="160" rx="10" fill="#1c2230" stroke="#19e3c0"/><text x="200" y="130" font-family="system-ui, -apple-system, 'Segoe UI', Roboto, Arial, sans-serif" font-size="26" font-weight="800" letter-spacing="4" fill="#eceff6" stroke="none" text-anchor="middle">INTEL</text><text x="200" y="158" font-family="ui-monospace, SFMono-Regular, Menlo, Consolas, monospace" font-size="17" font-weight="700" letter-spacing="2" fill="#19e3c0" stroke="none" text-anchor="middle">CORE i5</text><text x="200" y="182" font-family="ui-monospace, SFMono-Regular, Menlo, Consolas, monospace" font-size="17" font-weight="400" letter-spacing="2" fill="#9aa5bb" stroke="none" text-anchor="middle">14600K</text></g></svg>
