<svg xmlns="http://www.w3.org/2000/svg" viewBox="0 0 400 300" role="img" aria-labelledby="t"><title id="t">MSI GeForce RTX 4080 Super 16GB Gaming X Slim</title><g fill="none" stroke-linecap="round" stroke-linejoin="round" stroke-width="3"><rect x="40" y="70" width="320" height="130" rx="14" fill="#10131a" stroke="#9aa5bb"/><rect x="26" y="78" width="14" height="114" rx="3" fill="#1c2230" stroke="#9aa5bb"/><path d="M56 82H344" stroke="#19e3c0" stroke-width="2" opacity=".7"/><rect x="290" y="58" width="46" height="12" rx="3" fill="#1c2230" stroke="#9aa5bb"/><rect x="56" y="200" width="288" height="12" rx="2" fill="#1c2230" stroke="#9aa5bb"/><path d="M70 212v12" stroke="#19e3c0" stroke-width="2" opacity=".55"/><path d="M84 212v12" stroke="#19e3c0" stroke-width="2" opacity=".55"/><path d="M98 212v12" stroke="#19e3c0" stroke-width="2" opacity=".55"/><path d="M112 212v12" stroke="#19e3c0" stroke-width="2" opacity=".55"/><path d="M126 212v12" stroke="#19e3c0" stroke-width="2" opacity=".55"/><path d="M140 212v12" stroke="#19e3c0" stroke-width="2" opacity=".55"/><path d="M154 212v12" stroke="#19e3c0" stroke-width="2" opacity=".55"/><path d="M168 212v12" stroke="#19e3c0" stroke-width="2" opacity=".55"/><path d="M182 212v12" stroke="#19e3c0" stroke-width="2" opacity=".55"/><path d="M210 212v12" stroke="#19e3c0" stroke-width="2" opacity=".55"/><path d="M224 212v12" stroke="#19e3c0" stroke-width="2" opacity=".55"/><path d="M238 212v12" stroke="#19e3c0" stroke-width="2" opacity=".55"/><path d="M252 212v12" stroke="#19e3c0" stroke-width="2" opacity=".55"/><circle cx="100.0" cy="139.0" r="42.0" fill="#1c2230" stroke="#9aa5bb"/><circle cx="100.0" cy="139.0" r="8.4" fill="#19e3c0" stroke="none"/><path d="M100.0 129.8 Q92.4 113.0 111.8 102.9" stroke="#19e3c0" stroke-width="2.4" transform="rotate(0.0 100.0 139.0)"/><path d="M100.0 129.8 Q92.4 113.0 111.8 102.9" stroke="#19e3c0" stroke-width="2.4" transform="rotate(40.0 100.0 139.0)"/><path d="M100.0 129.8 Q92.4 113.0 111.8 102.9" stroke="#19e3c0" stroke-width="2.4" transform="rotate(80.0 100.0 139.0)"/><path d="M100.0 129.8 Q92.4 113.0 111.8 102.9" stroke="#19e3c0" stroke-width="2.4" transform="rotate(120.0 100.0 139.0)"/><path d="M100.0 129.8 Q92.4 113.0 111.8 102.9" stroke="#19e3c0" stroke-width="2.4" transform="rotate(160.0 100.0 139.0)"/><path d="M100.0 129.8 Q92.4 113.0 111.8 102.9" stroke="#19e3c0" stroke-width="2.4" transform="rotate(200.0 100.0 139.0)"/><path d="M100.0 129.8 Q92.4 113.0 111.8 102.9" stroke="#19e3c0" stroke-width="2.4" transform="rotate(240.0 100.0 139.0)"/><path d="M100.0 129.8 Q92.4 113.0 111.8 102.9" stroke="#19e3c0" stroke-width="2.4" transform="rotate(280.0 100.0 139.0)"/><path d="M100.0 129.8 Q92.4 113.0 111.8 102.9" stroke="#19e3c0" stroke-width="2.4" transform="rotate(320.0 100.0 139.0)"/><circle cx="200.0" cy="139.0" r="42.0" fill="#1c2230" stroke="#9aa5bb"/><circle cx="200.0" cy="139.0" r="8.4" fill="#19e3c0" stroke="none"/><path d="M200.0 129.8 Q192.4 113.0 211.8 102.9" stroke="#19e3c0" stroke-width="2.4" transform="rotate(0.0 200.0 139.0)"/><path d="M200.0 129.8 Q192.4 113.0 211.8 102.9" stroke="#19e3c0" stroke-width="2.4" transform="rotate(40.0 200.0 139.0)"/><path d="M200.0 129.8 Q192.4 113.0 211.8 102.9" stroke="#19e3c0" stroke-width="2.4" transform="rotate(80.0 200.0 139.0)"/><path d="M200.0 129.8 Q192.4 113.0 211.8 102.9" stroke="#19e3c0" stroke-width="2.4" transform="rotate(120.0 200.0 139.0)"/><path d="M200.0 129.8 Q192.4 113.0 211.8 102.9" stroke="#19e3c0" stroke-width="2.4" transform="rotate(160.0 200.0 139.0)"/><path d="M200.0 129.8 Q192.4 113.0 211.8 102.9" stroke="#19e3c0" stroke-width="2.4" transform="rotate(200.0 200.0 139.0)"/><path d="M200.0 129.8 Q192.4 113.0 211.8 102.9" stroke="#19e3c0" stroke-width="2.4" transform="rotate(240.0 200.0 139.0)"/><path d="M200.0 129.8 Q192.4 113.0 211.8 102.9" stroke="#19e3c0" stroke-width="2.4" transform="rotate(280.0 200.0 139.0)"/><path d="M200.0 129.8 Q192.4 113.0 211.8 102.9" stroke="#19e3c0" stroke-width="2.4" transform="rotate(320.0 200.0 139.0)"/><circle cx="300.0" cy="139.0" r="42.0" fill="#1c2230" stroke="#9aa5bb"/><circle cx="300.0" cy="139.0" r="8.4" fill="#19e3c0" stroke="none"/><path d="M300.0 129.8 Q292.4 113.0 311.8 102.9" stroke="#19e3c0" stroke-width="2.4" transform="rotate(0.0 300.0 139.0)"/><path d="M300.0 129.8 Q292.4 113.0 311.8 102.9" stroke="#19e3c0" stroke-width="2.4" transform="rotate(40.0 300.0 139.0)"/><path d="M300.0 129.8 Q292.4 113.0 311.8 102.9" stroke="#19e3c0" stroke-width="2.4" transform="rotate(80.0 300.0 139.0)"/><path d="M300.0 129.8 Q292.4 113.0 311.8 102.9" stroke="#19e3c0" stroke-width="2.4" transform="rotate(120.0 300.0 139.0)"/><path d="M300.0 129.8 Q292.4 113.0 311.8 102.9" stroke="#19e3c0" stroke-width="2.4" transform="rotate(160.0 300.0 139.0)"/><path d="M300.0 129.8 Q292.4 113.0 311.8 102.9" stroke="#19e3c0" stroke-width="2.4" transform="rotate(200.0 300.0 139.0)"/><path d="M300.0 129.8 Q292.4 113.0 311.8 102.9" stroke="#19e3c0" stroke-width="2.4" transform="rotate(240.0 300.0 139.0)"/><path d="M300.0 129.8 Q292.4 113.0 311.8 102.9" stroke="#19e3c0" stroke-width="2.4" transform="rotate(280.0 300.0 139.0)"/><path d="M300.0 129.8 Q292.4 113.0 311.8 102.9" stroke="#19e3c0" stroke-width="2.4" transform="rotate(320.0 300.0 139.0)"/><text x="200" y="262" font-family="system-ui, -apple-system, 'Segoe UI', Roboto, Arial, sans-serif" font-size="22" font-weight="700" letter-spacing="3" fill="#19e3c0" stroke="none" text-anchor="middle">MSI</text><text x="200" y="284" font-family="ui-monospace, SFMono-Regular, Menlo, Consolas, monospace" font-size="13" font-weight="400" letter-spacing="2" fill="#9aa5bb" stroke="none" text-anchor="middle">RTX 4080 SUPER</text></g></svg>
